<mxfile host="app.diagrams.net" modified="2023-11-22T23:50:57.358Z" agent="Mozilla/5.0 (Macintosh; Intel Mac OS X 10_15_7) AppleWebKit/605.1.15 (KHTML, like Gecko) Version/17.2 Safari/605.1.15" etag="Ww13-Fa-lBpBunhowSDm" version="22.1.3" type="github">
  <diagram name="Drill down - Client Registration flow" id="cY7f4eGkr6tP4W8T8UiW">
    <mxGraphModel dx="954" dy="2850" grid="1" gridSize="10" guides="1" tooltips="1" connect="1" arrows="1" fold="1" page="1" pageScale="1" pageWidth="850" pageHeight="1100" math="0" shadow="0">
      <root>
        <mxCell id="Uqz3qc1_EBIvRJODGDup-0" />
        <mxCell id="Uqz3qc1_EBIvRJODGDup-1" parent="Uqz3qc1_EBIvRJODGDup-0" />
        <mxCell id="Uqz3qc1_EBIvRJODGDup-2" value="ridexpress-experience-api" style="swimlane;horizontal=0;whiteSpace=wrap;html=1;" parent="Uqz3qc1_EBIvRJODGDup-1" vertex="1">
          <mxGeometry y="-230" width="1110" height="200" as="geometry" />
        </mxCell>
        <mxCell id="Uqz3qc1_EBIvRJODGDup-3" value="Validations based on RAML" style="points=[[0.25,0,0],[0.5,0,0],[0.75,0,0],[1,0.25,0],[1,0.5,0],[1,0.75,0],[0.75,1,0],[0.5,1,0],[0.25,1,0],[0,0.75,0],[0,0.5,0],[0,0.25,0]];shape=mxgraph.bpmn.task;whiteSpace=wrap;rectStyle=rounded;size=10;html=1;container=1;expand=0;collapsible=0;taskMarker=abstract;" parent="Uqz3qc1_EBIvRJODGDup-2" vertex="1">
          <mxGeometry x="359" y="50" width="120" height="80" as="geometry" />
        </mxCell>
        <mxCell id="7EMz--ndRc-FFF1v50o7-20" value="Validations based on RAML" style="points=[[0.25,0,0],[0.5,0,0],[0.75,0,0],[1,0.25,0],[1,0.5,0],[1,0.75,0],[0.75,1,0],[0.5,1,0],[0.25,1,0],[0,0.75,0],[0,0.5,0],[0,0.25,0]];shape=mxgraph.bpmn.task;whiteSpace=wrap;rectStyle=rounded;size=10;html=1;container=1;expand=0;collapsible=0;taskMarker=abstract;" parent="Uqz3qc1_EBIvRJODGDup-2" vertex="1">
          <mxGeometry x="720" y="50" width="120" height="80" as="geometry" />
        </mxCell>
        <mxCell id="Uqz3qc1_EBIvRJODGDup-7" value="Mobile App" style="swimlane;horizontal=0;whiteSpace=wrap;html=1;" parent="Uqz3qc1_EBIvRJODGDup-1" vertex="1">
          <mxGeometry y="-30" width="1110" height="200" as="geometry" />
        </mxCell>
        <mxCell id="Uqz3qc1_EBIvRJODGDup-8" style="edgeStyle=orthogonalEdgeStyle;rounded=0;orthogonalLoop=1;jettySize=auto;html=1;entryX=0;entryY=0.5;entryDx=0;entryDy=0;entryPerimeter=0;" parent="Uqz3qc1_EBIvRJODGDup-7" source="Uqz3qc1_EBIvRJODGDup-9" target="Uqz3qc1_EBIvRJODGDup-10" edge="1">
          <mxGeometry relative="1" as="geometry" />
        </mxCell>
        <mxCell id="Uqz3qc1_EBIvRJODGDup-9" value="" style="points=[[0.145,0.145,0],[0.5,0,0],[0.855,0.145,0],[1,0.5,0],[0.855,0.855,0],[0.5,1,0],[0.145,0.855,0],[0,0.5,0]];shape=mxgraph.bpmn.event;html=1;verticalLabelPosition=bottom;labelBackgroundColor=#ffffff;verticalAlign=top;align=center;perimeter=ellipsePerimeter;outlineConnect=0;aspect=fixed;outline=standard;symbol=general;" parent="Uqz3qc1_EBIvRJODGDup-7" vertex="1">
          <mxGeometry x="70" y="75" width="50" height="50" as="geometry" />
        </mxCell>
        <mxCell id="Uqz3qc1_EBIvRJODGDup-10" value="Starts app" style="points=[[0.25,0,0],[0.5,0,0],[0.75,0,0],[1,0.25,0],[1,0.5,0],[1,0.75,0],[0.75,1,0],[0.5,1,0],[0.25,1,0],[0,0.75,0],[0,0.5,0],[0,0.25,0]];shape=mxgraph.bpmn.task;whiteSpace=wrap;rectStyle=rounded;size=10;html=1;container=1;expand=0;collapsible=0;taskMarker=abstract;" parent="Uqz3qc1_EBIvRJODGDup-7" vertex="1">
          <mxGeometry x="180" y="60" width="120" height="80" as="geometry" />
        </mxCell>
        <mxCell id="Uqz3qc1_EBIvRJODGDup-11" value="Complete registration form" style="points=[[0.25,0,0],[0.5,0,0],[0.75,0,0],[1,0.25,0],[1,0.5,0],[1,0.75,0],[0.75,1,0],[0.5,1,0],[0.25,1,0],[0,0.75,0],[0,0.5,0],[0,0.25,0]];shape=mxgraph.bpmn.task;whiteSpace=wrap;rectStyle=rounded;size=10;html=1;container=1;expand=0;collapsible=0;taskMarker=abstract;" parent="Uqz3qc1_EBIvRJODGDup-7" vertex="1">
          <mxGeometry x="359" y="60" width="120" height="80" as="geometry" />
        </mxCell>
        <mxCell id="Uqz3qc1_EBIvRJODGDup-12" style="edgeStyle=orthogonalEdgeStyle;rounded=0;orthogonalLoop=1;jettySize=auto;html=1;" parent="Uqz3qc1_EBIvRJODGDup-7" source="Uqz3qc1_EBIvRJODGDup-10" target="Uqz3qc1_EBIvRJODGDup-11" edge="1">
          <mxGeometry relative="1" as="geometry" />
        </mxCell>
        <mxCell id="Uqz3qc1_EBIvRJODGDup-13" value="" style="ellipse;whiteSpace=wrap;html=1;aspect=fixed;fillColor=#000000;" parent="Uqz3qc1_EBIvRJODGDup-7" vertex="1">
          <mxGeometry x="1040" y="45" width="50" height="50" as="geometry" />
        </mxCell>
        <mxCell id="Uqz3qc1_EBIvRJODGDup-14" value="App is in it&#39;s main menu for client&amp;nbsp;" style="points=[[0.25,0,0],[0.5,0,0],[0.75,0,0],[1,0.25,0],[1,0.5,0],[1,0.75,0],[0.75,1,0],[0.5,1,0],[0.25,1,0],[0,0.75,0],[0,0.5,0],[0,0.25,0]];shape=mxgraph.bpmn.task;whiteSpace=wrap;rectStyle=rounded;size=10;html=1;container=1;expand=0;collapsible=0;taskMarker=abstract;" parent="Uqz3qc1_EBIvRJODGDup-7" vertex="1">
          <mxGeometry x="870" y="30" width="120" height="80" as="geometry" />
        </mxCell>
        <mxCell id="Uqz3qc1_EBIvRJODGDup-15" value="" style="edgeStyle=orthogonalEdgeStyle;rounded=0;orthogonalLoop=1;jettySize=auto;html=1;" parent="Uqz3qc1_EBIvRJODGDup-7" source="Uqz3qc1_EBIvRJODGDup-14" target="Uqz3qc1_EBIvRJODGDup-13" edge="1">
          <mxGeometry relative="1" as="geometry" />
        </mxCell>
        <mxCell id="Uqz3qc1_EBIvRJODGDup-16" value="Complete with code" style="points=[[0.25,0,0],[0.5,0,0],[0.75,0,0],[1,0.25,0],[1,0.5,0],[1,0.75,0],[0.75,1,0],[0.5,1,0],[0.25,1,0],[0,0.75,0],[0,0.5,0],[0,0.25,0]];shape=mxgraph.bpmn.task;whiteSpace=wrap;rectStyle=rounded;size=10;html=1;container=1;expand=0;collapsible=0;taskMarker=abstract;" parent="Uqz3qc1_EBIvRJODGDup-7" vertex="1">
          <mxGeometry x="570" y="60" width="120" height="80" as="geometry" />
        </mxCell>
        <mxCell id="Uqz3qc1_EBIvRJODGDup-17" style="edgeStyle=orthogonalEdgeStyle;rounded=0;orthogonalLoop=1;jettySize=auto;html=1;" parent="Uqz3qc1_EBIvRJODGDup-1" source="Uqz3qc1_EBIvRJODGDup-11" target="Uqz3qc1_EBIvRJODGDup-3" edge="1">
          <mxGeometry relative="1" as="geometry" />
        </mxCell>
        <mxCell id="7EMz--ndRc-FFF1v50o7-10" value="HTTPS POST /users" style="edgeLabel;html=1;align=center;verticalAlign=middle;resizable=0;points=[];" parent="Uqz3qc1_EBIvRJODGDup-17" vertex="1" connectable="0">
          <mxGeometry x="0.0462" y="-3" relative="1" as="geometry">
            <mxPoint x="-3" y="-12" as="offset" />
          </mxGeometry>
        </mxCell>
        <mxCell id="7EMz--ndRc-FFF1v50o7-0" value="users-process-api" style="swimlane;horizontal=0;whiteSpace=wrap;html=1;" parent="Uqz3qc1_EBIvRJODGDup-1" vertex="1">
          <mxGeometry y="-430" width="1110" height="200" as="geometry" />
        </mxCell>
        <mxCell id="7EMz--ndRc-FFF1v50o7-14" style="edgeStyle=orthogonalEdgeStyle;rounded=0;orthogonalLoop=1;jettySize=auto;html=1;entryX=0;entryY=0.5;entryDx=0;entryDy=0;entryPerimeter=0;" parent="7EMz--ndRc-FFF1v50o7-0" source="7EMz--ndRc-FFF1v50o7-31" target="7EMz--ndRc-FFF1v50o7-15" edge="1">
          <mxGeometry relative="1" as="geometry">
            <mxPoint x="600" y="70" as="targetPoint" />
          </mxGeometry>
        </mxCell>
        <mxCell id="7EMz--ndRc-FFF1v50o7-11" value="Orchestation" style="points=[[0.25,0,0],[0.5,0,0],[0.75,0,0],[1,0.25,0],[1,0.5,0],[1,0.75,0],[0.75,1,0],[0.5,1,0],[0.25,1,0],[0,0.75,0],[0,0.5,0],[0,0.25,0]];shape=mxgraph.bpmn.task;whiteSpace=wrap;rectStyle=rounded;size=10;html=1;container=1;expand=0;collapsible=0;taskMarker=abstract;" parent="7EMz--ndRc-FFF1v50o7-0" vertex="1">
          <mxGeometry x="359" y="60" width="120" height="80" as="geometry" />
        </mxCell>
        <mxCell id="7EMz--ndRc-FFF1v50o7-15" value="Send Email with validation code" style="points=[[0.25,0,0],[0.5,0,0],[0.75,0,0],[1,0.25,0],[1,0.5,0],[1,0.75,0],[0.75,1,0],[0.5,1,0],[0.25,1,0],[0,0.75,0],[0,0.5,0],[0,0.25,0]];shape=mxgraph.bpmn.task;whiteSpace=wrap;rectStyle=rounded;size=10;html=1;container=1;expand=0;collapsible=0;taskMarker=abstract;" parent="7EMz--ndRc-FFF1v50o7-0" vertex="1">
          <mxGeometry x="570" y="60" width="120" height="80" as="geometry" />
        </mxCell>
        <mxCell id="7EMz--ndRc-FFF1v50o7-25" value="Verify user" style="points=[[0.25,0,0],[0.5,0,0],[0.75,0,0],[1,0.25,0],[1,0.5,0],[1,0.75,0],[0.75,1,0],[0.5,1,0],[0.25,1,0],[0,0.75,0],[0,0.5,0],[0,0.25,0]];shape=mxgraph.bpmn.task;whiteSpace=wrap;rectStyle=rounded;size=10;html=1;container=1;expand=0;collapsible=0;taskMarker=abstract;" parent="7EMz--ndRc-FFF1v50o7-0" vertex="1">
          <mxGeometry x="720" y="60" width="120" height="80" as="geometry" />
        </mxCell>
        <mxCell id="7EMz--ndRc-FFF1v50o7-32" value="" style="edgeStyle=orthogonalEdgeStyle;rounded=0;orthogonalLoop=1;jettySize=auto;html=1;entryX=0;entryY=0.5;entryDx=0;entryDy=0;entryPerimeter=0;" parent="7EMz--ndRc-FFF1v50o7-0" source="7EMz--ndRc-FFF1v50o7-11" target="7EMz--ndRc-FFF1v50o7-31" edge="1">
          <mxGeometry relative="1" as="geometry">
            <mxPoint x="610" y="200" as="targetPoint" />
            <mxPoint x="530" y="200" as="sourcePoint" />
          </mxGeometry>
        </mxCell>
        <mxCell id="7EMz--ndRc-FFF1v50o7-31" value="Queue" style="sketch=0;outlineConnect=0;fontColor=#232F3E;gradientColor=none;strokeColor=#232F3E;fillColor=#ffffff;dashed=0;verticalLabelPosition=bottom;verticalAlign=top;align=center;html=1;fontSize=12;fontStyle=0;aspect=fixed;shape=mxgraph.aws4.resourceIcon;resIcon=mxgraph.aws4.queue;" parent="7EMz--ndRc-FFF1v50o7-0" vertex="1">
          <mxGeometry x="500" y="70" width="60" height="60" as="geometry" />
        </mxCell>
        <mxCell id="7EMz--ndRc-FFF1v50o7-28" style="edgeStyle=orthogonalEdgeStyle;rounded=0;orthogonalLoop=1;jettySize=auto;html=1;entryX=0.5;entryY=0;entryDx=0;entryDy=0;entryPerimeter=0;exitX=0.5;exitY=1;exitDx=0;exitDy=0;exitPerimeter=0;" parent="7EMz--ndRc-FFF1v50o7-0" source="rzqz2QtsTdcf7gHzFdcu-0" target="Uqz3qc1_EBIvRJODGDup-14" edge="1">
          <mxGeometry relative="1" as="geometry">
            <mxPoint x="910" y="430" as="targetPoint" />
            <Array as="points">
              <mxPoint x="930" y="20" />
              <mxPoint x="930" y="20" />
            </Array>
          </mxGeometry>
        </mxCell>
        <mxCell id="rzqz2QtsTdcf7gHzFdcu-2" value="Valid token&lt;br style=&quot;border-color: var(--border-color);&quot;&gt;to interact with API" style="edgeLabel;html=1;align=center;verticalAlign=middle;resizable=0;points=[];" parent="7EMz--ndRc-FFF1v50o7-28" vertex="1" connectable="0">
          <mxGeometry x="-0.128" y="3" relative="1" as="geometry">
            <mxPoint as="offset" />
          </mxGeometry>
        </mxCell>
        <mxCell id="7EMz--ndRc-FFF1v50o7-34" value="" style="edgeStyle=orthogonalEdgeStyle;rounded=0;orthogonalLoop=1;jettySize=auto;html=1;entryX=0.5;entryY=1;entryDx=0;entryDy=0;entryPerimeter=0;exitX=0;exitY=0.613;exitDx=0;exitDy=0;exitPerimeter=0;" parent="7EMz--ndRc-FFF1v50o7-0" source="7EMz--ndRc-FFF1v50o7-11" edge="1">
          <mxGeometry relative="1" as="geometry">
            <mxPoint x="290" y="150" as="sourcePoint" />
            <mxPoint x="120" y="-60" as="targetPoint" />
            <Array as="points">
              <mxPoint x="359" y="107" />
              <mxPoint x="320" y="107" />
              <mxPoint x="320" y="110" />
              <mxPoint x="120" y="110" />
            </Array>
          </mxGeometry>
        </mxCell>
        <mxCell id="7EMz--ndRc-FFF1v50o7-35" value="HTTPS GET /users" style="edgeLabel;html=1;align=center;verticalAlign=middle;resizable=0;points=[];" parent="7EMz--ndRc-FFF1v50o7-34" vertex="1" connectable="0">
          <mxGeometry x="0.3149" y="-1" relative="1" as="geometry">
            <mxPoint x="-1" y="-103" as="offset" />
          </mxGeometry>
        </mxCell>
        <mxCell id="Ejn2R77J1horF1LPCAj--3" value="( 1 )" style="edgeLabel;html=1;align=center;verticalAlign=middle;resizable=0;points=[];" vertex="1" connectable="0" parent="7EMz--ndRc-FFF1v50o7-34">
          <mxGeometry x="-0.8149" y="1" relative="1" as="geometry">
            <mxPoint x="-113" as="offset" />
          </mxGeometry>
        </mxCell>
        <mxCell id="7EMz--ndRc-FFF1v50o7-5" value="okta-system-api" style="swimlane;horizontal=0;whiteSpace=wrap;html=1;" parent="Uqz3qc1_EBIvRJODGDup-1" vertex="1">
          <mxGeometry y="-630" width="1110" height="200" as="geometry" />
        </mxCell>
        <mxCell id="7EMz--ndRc-FFF1v50o7-16" value="Creation of user" style="points=[[0.25,0,0],[0.5,0,0],[0.75,0,0],[1,0.25,0],[1,0.5,0],[1,0.75,0],[0.75,1,0],[0.5,1,0],[0.25,1,0],[0,0.75,0],[0,0.5,0],[0,0.25,0]];shape=mxgraph.bpmn.task;whiteSpace=wrap;rectStyle=rounded;size=10;html=1;container=1;expand=0;collapsible=0;taskMarker=abstract;" parent="7EMz--ndRc-FFF1v50o7-5" vertex="1">
          <mxGeometry x="252" y="62" width="120" height="88" as="geometry" />
        </mxCell>
        <mxCell id="7EMz--ndRc-FFF1v50o7-33" value="Get User by email" style="points=[[0.25,0,0],[0.5,0,0],[0.75,0,0],[1,0.25,0],[1,0.5,0],[1,0.75,0],[0.75,1,0],[0.5,1,0],[0.25,1,0],[0,0.75,0],[0,0.5,0],[0,0.25,0]];shape=mxgraph.bpmn.task;whiteSpace=wrap;rectStyle=rounded;size=10;html=1;container=1;expand=0;collapsible=0;taskMarker=abstract;" parent="7EMz--ndRc-FFF1v50o7-5" vertex="1">
          <mxGeometry x="70" y="60" width="120" height="80" as="geometry" />
        </mxCell>
        <mxCell id="rzqz2QtsTdcf7gHzFdcu-0" value="Get Valid Token" style="points=[[0.25,0,0],[0.5,0,0],[0.75,0,0],[1,0.25,0],[1,0.5,0],[1,0.75,0],[0.75,1,0],[0.5,1,0],[0.25,1,0],[0,0.75,0],[0,0.5,0],[0,0.25,0]];shape=mxgraph.bpmn.task;whiteSpace=wrap;rectStyle=rounded;size=10;html=1;container=1;expand=0;collapsible=0;taskMarker=abstract;" parent="7EMz--ndRc-FFF1v50o7-5" vertex="1">
          <mxGeometry x="870" y="50" width="120" height="80" as="geometry" />
        </mxCell>
        <mxCell id="7EMz--ndRc-FFF1v50o7-12" style="edgeStyle=orthogonalEdgeStyle;rounded=0;orthogonalLoop=1;jettySize=auto;html=1;" parent="Uqz3qc1_EBIvRJODGDup-1" source="Uqz3qc1_EBIvRJODGDup-3" target="7EMz--ndRc-FFF1v50o7-11" edge="1">
          <mxGeometry relative="1" as="geometry" />
        </mxCell>
        <mxCell id="7EMz--ndRc-FFF1v50o7-13" value="HTTPS POST /users" style="edgeLabel;html=1;align=center;verticalAlign=middle;resizable=0;points=[];" parent="7EMz--ndRc-FFF1v50o7-12" vertex="1" connectable="0">
          <mxGeometry x="-0.4182" y="-3" relative="1" as="geometry">
            <mxPoint x="-3" as="offset" />
          </mxGeometry>
        </mxCell>
        <mxCell id="7EMz--ndRc-FFF1v50o7-17" style="edgeStyle=orthogonalEdgeStyle;rounded=0;orthogonalLoop=1;jettySize=auto;html=1;" parent="Uqz3qc1_EBIvRJODGDup-1" source="7EMz--ndRc-FFF1v50o7-30" target="Uqz3qc1_EBIvRJODGDup-16" edge="1">
          <mxGeometry relative="1" as="geometry" />
        </mxCell>
        <mxCell id="7EMz--ndRc-FFF1v50o7-18" style="edgeStyle=orthogonalEdgeStyle;rounded=0;orthogonalLoop=1;jettySize=auto;html=1;entryX=0.5;entryY=1;entryDx=0;entryDy=0;entryPerimeter=0;" parent="Uqz3qc1_EBIvRJODGDup-1" target="7EMz--ndRc-FFF1v50o7-16" edge="1">
          <mxGeometry relative="1" as="geometry">
            <Array as="points">
              <mxPoint x="310" y="-333" />
              <mxPoint x="310" y="-390" />
              <mxPoint x="312" y="-390" />
            </Array>
            <mxPoint x="359" y="-333" as="sourcePoint" />
            <mxPoint x="250" y="-390" as="targetPoint" />
          </mxGeometry>
        </mxCell>
        <mxCell id="7EMz--ndRc-FFF1v50o7-19" value="HTTPS POST /users" style="edgeLabel;html=1;align=center;verticalAlign=middle;resizable=0;points=[];" parent="7EMz--ndRc-FFF1v50o7-18" vertex="1" connectable="0">
          <mxGeometry x="-0.3385" y="1" relative="1" as="geometry">
            <mxPoint x="1" y="-110" as="offset" />
          </mxGeometry>
        </mxCell>
        <mxCell id="Ejn2R77J1horF1LPCAj--4" value="( 2 )" style="edgeLabel;html=1;align=center;verticalAlign=middle;resizable=0;points=[];" vertex="1" connectable="0" parent="7EMz--ndRc-FFF1v50o7-18">
          <mxGeometry x="0.0048" y="-2" relative="1" as="geometry">
            <mxPoint y="-14" as="offset" />
          </mxGeometry>
        </mxCell>
        <mxCell id="7EMz--ndRc-FFF1v50o7-21" style="edgeStyle=orthogonalEdgeStyle;rounded=0;orthogonalLoop=1;jettySize=auto;html=1;entryX=0.5;entryY=1;entryDx=0;entryDy=0;entryPerimeter=0;" parent="Uqz3qc1_EBIvRJODGDup-1" source="Uqz3qc1_EBIvRJODGDup-16" target="7EMz--ndRc-FFF1v50o7-20" edge="1">
          <mxGeometry relative="1" as="geometry" />
        </mxCell>
        <mxCell id="7EMz--ndRc-FFF1v50o7-22" value="HTTPS POST /users/{id}/code" style="edgeLabel;html=1;align=center;verticalAlign=middle;resizable=0;points=[];" parent="7EMz--ndRc-FFF1v50o7-21" vertex="1" connectable="0">
          <mxGeometry x="0.2692" relative="1" as="geometry">
            <mxPoint as="offset" />
          </mxGeometry>
        </mxCell>
        <mxCell id="7EMz--ndRc-FFF1v50o7-26" style="edgeStyle=orthogonalEdgeStyle;rounded=0;orthogonalLoop=1;jettySize=auto;html=1;" parent="Uqz3qc1_EBIvRJODGDup-1" source="7EMz--ndRc-FFF1v50o7-20" target="7EMz--ndRc-FFF1v50o7-25" edge="1">
          <mxGeometry relative="1" as="geometry" />
        </mxCell>
        <mxCell id="7EMz--ndRc-FFF1v50o7-27" value="HTTPS POST /users/{id}/code" style="edgeLabel;html=1;align=center;verticalAlign=middle;resizable=0;points=[];" parent="7EMz--ndRc-FFF1v50o7-26" vertex="1" connectable="0">
          <mxGeometry x="-0.4545" y="-2" relative="1" as="geometry">
            <mxPoint as="offset" />
          </mxGeometry>
        </mxCell>
        <mxCell id="7EMz--ndRc-FFF1v50o7-29" value="" style="edgeStyle=orthogonalEdgeStyle;rounded=0;orthogonalLoop=1;jettySize=auto;html=1;exitX=1;exitY=0.5;exitDx=0;exitDy=0;exitPerimeter=0;" parent="Uqz3qc1_EBIvRJODGDup-1" source="7EMz--ndRc-FFF1v50o7-46" target="7EMz--ndRc-FFF1v50o7-30" edge="1">
          <mxGeometry relative="1" as="geometry">
            <mxPoint x="630" y="-290" as="sourcePoint" />
            <mxPoint x="630" y="30" as="targetPoint" />
            <Array as="points">
              <mxPoint x="700" y="-930" />
              <mxPoint x="700" y="-150" />
            </Array>
          </mxGeometry>
        </mxCell>
        <mxCell id="7EMz--ndRc-FFF1v50o7-30" value="" style="verticalLabelPosition=bottom;shadow=0;dashed=0;align=center;html=1;verticalAlign=top;strokeWidth=1;shape=mxgraph.mockup.misc.mail2;strokeColor=#999999;" parent="Uqz3qc1_EBIvRJODGDup-1" vertex="1">
          <mxGeometry x="605" y="-170" width="50" height="40" as="geometry" />
        </mxCell>
        <mxCell id="7EMz--ndRc-FFF1v50o7-37" value="" style="edgeStyle=orthogonalEdgeStyle;rounded=0;orthogonalLoop=1;jettySize=auto;html=1;" parent="Uqz3qc1_EBIvRJODGDup-1" source="7EMz--ndRc-FFF1v50o7-25" target="7EMz--ndRc-FFF1v50o7-41" edge="1">
          <mxGeometry relative="1" as="geometry">
            <mxPoint x="780" y="-500" as="targetPoint" />
          </mxGeometry>
        </mxCell>
        <mxCell id="7EMz--ndRc-FFF1v50o7-43" value="HTTPS POST /users/{id}/code" style="edgeLabel;html=1;align=center;verticalAlign=middle;resizable=0;points=[];" parent="7EMz--ndRc-FFF1v50o7-37" vertex="1" connectable="0">
          <mxGeometry x="-0.1333" y="1" relative="1" as="geometry">
            <mxPoint as="offset" />
          </mxGeometry>
        </mxCell>
        <mxCell id="Ejn2R77J1horF1LPCAj--9" value="( 1 )" style="edgeLabel;html=1;align=center;verticalAlign=middle;resizable=0;points=[];" vertex="1" connectable="0" parent="7EMz--ndRc-FFF1v50o7-37">
          <mxGeometry x="-0.8057" y="-1" relative="1" as="geometry">
            <mxPoint as="offset" />
          </mxGeometry>
        </mxCell>
        <mxCell id="7EMz--ndRc-FFF1v50o7-38" value="users-system-api" style="swimlane;horizontal=0;whiteSpace=wrap;html=1;" parent="Uqz3qc1_EBIvRJODGDup-1" vertex="1">
          <mxGeometry y="-830" width="1110" height="200" as="geometry" />
        </mxCell>
        <mxCell id="7EMz--ndRc-FFF1v50o7-39" value="Creation of user" style="points=[[0.25,0,0],[0.5,0,0],[0.75,0,0],[1,0.25,0],[1,0.5,0],[1,0.75,0],[0.75,1,0],[0.5,1,0],[0.25,1,0],[0,0.75,0],[0,0.5,0],[0,0.25,0]];shape=mxgraph.bpmn.task;whiteSpace=wrap;rectStyle=rounded;size=10;html=1;container=1;expand=0;collapsible=0;taskMarker=abstract;" parent="7EMz--ndRc-FFF1v50o7-38" vertex="1">
          <mxGeometry x="470" y="32" width="120" height="80" as="geometry" />
        </mxCell>
        <mxCell id="7EMz--ndRc-FFF1v50o7-41" value="Validate user" style="points=[[0.25,0,0],[0.5,0,0],[0.75,0,0],[1,0.25,0],[1,0.5,0],[1,0.75,0],[0.75,1,0],[0.5,1,0],[0.25,1,0],[0,0.75,0],[0,0.5,0],[0,0.25,0]];shape=mxgraph.bpmn.task;whiteSpace=wrap;rectStyle=rounded;size=10;html=1;container=1;expand=0;collapsible=0;taskMarker=abstract;" parent="7EMz--ndRc-FFF1v50o7-38" vertex="1">
          <mxGeometry x="720" y="30" width="120" height="80" as="geometry" />
        </mxCell>
        <mxCell id="7EMz--ndRc-FFF1v50o7-42" style="edgeStyle=orthogonalEdgeStyle;rounded=0;orthogonalLoop=1;jettySize=auto;html=1;entryX=0.5;entryY=1;entryDx=0;entryDy=0;entryPerimeter=0;" parent="Uqz3qc1_EBIvRJODGDup-1" source="7EMz--ndRc-FFF1v50o7-11" target="7EMz--ndRc-FFF1v50o7-39" edge="1">
          <mxGeometry relative="1" as="geometry">
            <Array as="points">
              <mxPoint x="420" y="-640" />
              <mxPoint x="530" y="-640" />
            </Array>
          </mxGeometry>
        </mxCell>
        <mxCell id="Ejn2R77J1horF1LPCAj--7" value="HTTPS POST /users" style="edgeLabel;html=1;align=center;verticalAlign=middle;resizable=0;points=[];" vertex="1" connectable="0" parent="7EMz--ndRc-FFF1v50o7-42">
          <mxGeometry x="0.8649" y="-1" relative="1" as="geometry">
            <mxPoint as="offset" />
          </mxGeometry>
        </mxCell>
        <mxCell id="Ejn2R77J1horF1LPCAj--8" value="( 4 )" style="edgeLabel;html=1;align=center;verticalAlign=middle;resizable=0;points=[];" vertex="1" connectable="0" parent="7EMz--ndRc-FFF1v50o7-42">
          <mxGeometry x="0.7516" y="1" relative="1" as="geometry">
            <mxPoint as="offset" />
          </mxGeometry>
        </mxCell>
        <mxCell id="7EMz--ndRc-FFF1v50o7-45" value="email-system-api" style="swimlane;horizontal=0;whiteSpace=wrap;html=1;" parent="Uqz3qc1_EBIvRJODGDup-1" vertex="1">
          <mxGeometry y="-1030" width="1110" height="200" as="geometry" />
        </mxCell>
        <mxCell id="7EMz--ndRc-FFF1v50o7-46" value="Send email" style="points=[[0.25,0,0],[0.5,0,0],[0.75,0,0],[1,0.25,0],[1,0.5,0],[1,0.75,0],[0.75,1,0],[0.5,1,0],[0.25,1,0],[0,0.75,0],[0,0.5,0],[0,0.25,0]];shape=mxgraph.bpmn.task;whiteSpace=wrap;rectStyle=rounded;size=10;html=1;container=1;expand=0;collapsible=0;taskMarker=abstract;" parent="7EMz--ndRc-FFF1v50o7-45" vertex="1">
          <mxGeometry x="570" y="60" width="120" height="80" as="geometry" />
        </mxCell>
        <mxCell id="7EMz--ndRc-FFF1v50o7-48" style="edgeStyle=orthogonalEdgeStyle;rounded=0;orthogonalLoop=1;jettySize=auto;html=1;" parent="Uqz3qc1_EBIvRJODGDup-1" source="7EMz--ndRc-FFF1v50o7-15" target="7EMz--ndRc-FFF1v50o7-46" edge="1">
          <mxGeometry relative="1" as="geometry" />
        </mxCell>
        <mxCell id="7EMz--ndRc-FFF1v50o7-49" value="POST /emails" style="edgeLabel;html=1;align=center;verticalAlign=middle;resizable=0;points=[];" parent="7EMz--ndRc-FFF1v50o7-48" vertex="1" connectable="0">
          <mxGeometry x="0.0846" y="3" relative="1" as="geometry">
            <mxPoint as="offset" />
          </mxGeometry>
        </mxCell>
        <mxCell id="rzqz2QtsTdcf7gHzFdcu-1" style="edgeStyle=orthogonalEdgeStyle;rounded=0;orthogonalLoop=1;jettySize=auto;html=1;entryX=0;entryY=0.5;entryDx=0;entryDy=0;entryPerimeter=0;" parent="Uqz3qc1_EBIvRJODGDup-1" source="7EMz--ndRc-FFF1v50o7-25" target="rzqz2QtsTdcf7gHzFdcu-0" edge="1">
          <mxGeometry relative="1" as="geometry">
            <Array as="points">
              <mxPoint x="860" y="-330" />
              <mxPoint x="860" y="-540" />
            </Array>
          </mxGeometry>
        </mxCell>
        <mxCell id="Ejn2R77J1horF1LPCAj--10" value="( 2 )" style="edgeLabel;html=1;align=center;verticalAlign=middle;resizable=0;points=[];" vertex="1" connectable="0" parent="rzqz2QtsTdcf7gHzFdcu-1">
          <mxGeometry x="-0.25" y="-1" relative="1" as="geometry">
            <mxPoint as="offset" />
          </mxGeometry>
        </mxCell>
        <mxCell id="SpWeVstdPMxvP2cv8jyx-0" value="&lt;h1&gt;Diagram for the sign up of a user/driver - Client Registration&lt;br&gt;&lt;/h1&gt;" style="text;html=1;align=center;verticalAlign=middle;resizable=0;points=[];autosize=1;strokeColor=none;fillColor=none;" parent="Uqz3qc1_EBIvRJODGDup-1" vertex="1">
          <mxGeometry y="-1460" width="710" height="70" as="geometry" />
        </mxCell>
        <mxCell id="Ejn2R77J1horF1LPCAj--0" value="square-system-api" style="swimlane;horizontal=0;whiteSpace=wrap;html=1;" vertex="1" parent="Uqz3qc1_EBIvRJODGDup-1">
          <mxGeometry y="-1230" width="1110" height="200" as="geometry" />
        </mxCell>
        <mxCell id="Ejn2R77J1horF1LPCAj--1" value="Create Profile" style="points=[[0.25,0,0],[0.5,0,0],[0.75,0,0],[1,0.25,0],[1,0.5,0],[1,0.75,0],[0.75,1,0],[0.5,1,0],[0.25,1,0],[0,0.75,0],[0,0.5,0],[0,0.25,0]];shape=mxgraph.bpmn.task;whiteSpace=wrap;rectStyle=rounded;size=10;html=1;container=1;expand=0;collapsible=0;taskMarker=abstract;" vertex="1" parent="Ejn2R77J1horF1LPCAj--0">
          <mxGeometry x="359" y="40" width="120" height="80" as="geometry" />
        </mxCell>
        <mxCell id="Ejn2R77J1horF1LPCAj--2" style="edgeStyle=orthogonalEdgeStyle;rounded=0;orthogonalLoop=1;jettySize=auto;html=1;exitX=0.5;exitY=0;exitDx=0;exitDy=0;exitPerimeter=0;entryX=0.5;entryY=1;entryDx=0;entryDy=0;entryPerimeter=0;" edge="1" parent="Uqz3qc1_EBIvRJODGDup-1" source="7EMz--ndRc-FFF1v50o7-11" target="Ejn2R77J1horF1LPCAj--1">
          <mxGeometry relative="1" as="geometry">
            <Array as="points">
              <mxPoint x="419" y="-1093" />
            </Array>
          </mxGeometry>
        </mxCell>
        <mxCell id="Ejn2R77J1horF1LPCAj--5" value="HTTPS POST /customers" style="edgeLabel;html=1;align=center;verticalAlign=middle;resizable=0;points=[];" vertex="1" connectable="0" parent="Ejn2R77J1horF1LPCAj--2">
          <mxGeometry x="0.1725" relative="1" as="geometry">
            <mxPoint y="-284" as="offset" />
          </mxGeometry>
        </mxCell>
        <mxCell id="Ejn2R77J1horF1LPCAj--6" value="( 3 )" style="edgeLabel;html=1;align=center;verticalAlign=middle;resizable=0;points=[];" vertex="1" connectable="0" parent="Ejn2R77J1horF1LPCAj--2">
          <mxGeometry x="0.1024" relative="1" as="geometry">
            <mxPoint y="-290" as="offset" />
          </mxGeometry>
        </mxCell>
      </root>
    </mxGraphModel>
  </diagram>
</mxfile>
